<svg height="512" viewBox="0 0 529.477 529.477" width="512"
     xmlns="http://www.w3.org/2000/svg">
<path d="m208.74 152.205-25.955 79.905c-1.553 4.795 1.075 9.942 5.87 11.495 2.777.899 5.816.417 8.177-1.299l67.962-49.378 67.962 49.377c4.078 2.963 9.786 2.059 12.749-2.019 1.716-2.361 2.198-5.401 1.299-8.177l-25.955-79.905 67.962-49.377c4.076-2.965 4.977-8.673 2.012-12.75-1.717-2.36-4.459-3.757-7.378-3.758h-84.006l-25.963-79.897c-1.555-4.795-6.703-7.421-11.498-5.865-2.782.902-4.963 3.083-5.865 5.865l-25.963 79.897h-84.005c-5.041.002-9.125 4.09-9.123 9.131.001 2.918 1.398 5.659 3.757 7.376zm28.041-47.632c3.955 0 7.46-2.548 8.681-6.31l19.333-59.494 19.333 59.494c1.221 3.762 4.725 6.31 8.681 6.31h62.543l-50.6 36.766c-3.199 2.32-4.538 6.438-3.316 10.197l19.324 59.495-50.599-36.766c-3.198-2.33-7.534-2.33-10.732 0l-50.599 36.766 19.324-59.495c1.223-3.758-.116-7.876-3.316-10.197l-50.6-36.766z"/>
<path d="m511.222 393.196h-70.066l-21.649-66.627c-1.555-4.795-6.703-7.421-11.498-5.865-2.782.902-4.963 3.083-5.865 5.865l-21.649 66.627h-70.066c-5.041.002-9.125 4.09-9.123 9.131.001 2.918 1.398 5.659 3.757 7.376l56.687 41.19-21.658 66.627c-1.56 4.793 1.061 9.943 5.854 11.503 2.781.905 5.828.423 8.193-1.298l56.687-41.174 56.687 41.178c4.076 2.966 9.784 2.066 12.75-2.01 1.722-2.367 2.205-5.416 1.297-8.199l-21.658-66.627 56.687-41.186c4.078-2.963 4.982-8.671 2.019-12.749-1.719-2.364-4.464-3.762-7.386-3.762zm-67.418 46.829c-3.2 2.324-4.538 6.445-3.316 10.206l15.028 46.223-39.324-28.567c-3.198-2.33-7.534-2.33-10.731 0l-39.324 28.567 15.028-46.223c1.223-3.761-.116-7.882-3.316-10.206l-39.324-28.575h48.603c3.956 0 7.461-2.548 8.682-6.31l15.018-46.214 15.018 46.214c1.221 3.762 4.726 6.31 8.682 6.31h48.603z"/>
<path d="m208.419 375.334h-52.016l-16.07-49.468c-1.553-4.796-6.699-7.424-11.495-5.871-2.782.901-4.964 3.081-5.868 5.862l-16.079 49.476h-52.017c-5.041.001-9.126 4.088-9.125 9.129.001 2.92 1.398 5.663 3.76 7.38l42.075 30.581-16.071 49.476c-1.553 4.795 1.075 9.942 5.87 11.495 2.777.899 5.816.417 8.177-1.299l42.087-30.575 42.075 30.575c4.079 2.962 9.786 2.057 12.748-2.022 1.715-2.361 2.197-5.399 1.298-8.175l-16.07-49.476 42.075-30.581c4.076-2.966 4.976-8.674 2.01-12.75-1.717-2.359-4.458-3.756-7.376-3.757zm-52.81 36.222c-3.199 2.321-4.538 6.438-3.316 10.197l9.439 29.065-24.716-17.958c-3.196-2.336-7.536-2.336-10.731 0l-24.725 17.959 9.439-29.065c1.222-3.758-.117-7.876-3.316-10.197l-24.725-17.969h30.563c3.952.002 7.456-2.54 8.682-6.298l9.447-29.066 9.439 29.054c1.221 3.763 4.726 6.31 8.682 6.31h30.563z"/>
<path d="m264.794 292.175c-15.122 0-27.381 12.259-27.381 27.381s12.259 27.381 27.381 27.381 27.381-12.259 27.381-27.381c-.016-15.115-12.266-27.364-27.381-27.381zm0 36.508c-5.041 0-9.127-4.086-9.127-9.127s4.086-9.127 9.127-9.127 9.127 4.086 9.127 9.127c-.003 5.039-4.087 9.124-9.127 9.127z"/>
<path d="m429.08 54.874c15.122 0 27.381-12.259 27.381-27.381s-12.259-27.381-27.381-27.381-27.381 12.259-27.381 27.381c.016 15.115 12.265 27.364 27.381 27.381zm0-36.508c5.041 0 9.127 4.086 9.127 9.127s-4.086 9.127-9.127 9.127-9.127-4.086-9.127-9.127c.003-5.039 4.087-9.124 9.127-9.127z"/>
<path d="m419.953 210.032c0 15.122 12.259 27.381 27.381 27.381s27.381-12.259 27.381-27.381-12.259-27.381-27.381-27.381c-15.116.017-27.365 12.266-27.381 27.381zm36.508 0c0 5.041-4.086 9.127-9.127 9.127s-9.127-4.086-9.127-9.127 4.086-9.127 9.127-9.127c5.039.003 9.123 4.088 9.127 9.127z"/>
<path d="m73.128 182.651c15.122 0 27.381-12.259 27.381-27.381s-12.259-27.38-27.381-27.38-27.381 12.259-27.381 27.381c.017 15.115 12.266 27.364 27.381 27.38zm0-36.507c5.041 0 9.127 4.086 9.127 9.127s-4.086 9.127-9.127 9.127-9.127-4.086-9.127-9.127c.003-5.04 4.088-9.124 9.127-9.127z"/>
<path d="m526.802 84.929c-3.561-3.564-9.336-3.566-12.9-.006-.002.002-.004.004-.006.006l-36.508 36.508c-3.626 3.502-3.726 9.28-.224 12.906s9.28 3.726 12.906.224c.076-.073.151-.148.224-.224l36.508-36.508c3.564-3.561 3.566-9.336.006-12.9-.002-.002-.004-.004-.006-.006z"/>
<path d="m52.2 303.976c-3.561-3.564-9.336-3.566-12.9-.006-.002.002-.004.004-.006.006l-36.508 36.508c-3.626 3.502-3.726 9.28-.224 12.906s9.28 3.726 12.906.224c.076-.073.151-.148.224-.224l36.508-36.508c3.564-3.561 3.566-9.336.006-12.9-.002-.002-.004-.004-.006-.006z"/>
<path d="m103.183 230.96c-3.564 3.561-3.566 9.336-.006 12.9.002.002.004.004.006.006l36.508 36.508c3.626 3.502 9.404 3.402 12.906-.224 3.416-3.537 3.416-9.145 0-12.681l-36.508-36.508c-3.561-3.564-9.336-3.566-12.9-.006-.002.002-.004.003-.006.005z"/>
<path d="m276.595 459.135-36.508 36.508c-3.626 3.502-3.726 9.28-.224 12.906s9.28 3.726 12.906.224c.076-.073.151-.148.224-.224l36.508-36.508c3.502-3.625 3.402-9.404-.224-12.906-3.537-3.417-9.145-3.417-12.682 0z"/>
<path d="m73.128 54.874c2.421.003 4.743-.96 6.453-2.674l36.508-36.508c3.626-3.502 3.726-9.28.224-12.906s-9.28-3.726-12.906-.224c-.076.073-.151.148-.224.224l-36.508 36.508c-3.564 3.565-3.563 9.344.002 12.907 1.711 1.711 4.031 2.672 6.451 2.673z"/>
<path d="m459.135 285.722c-3.564 3.561-3.566 9.336-.006 12.9l.006.006 36.508 36.508c3.625 3.502 9.404 3.402 12.906-.224 3.417-3.537 3.417-9.145 0-12.682l-36.508-36.508c-3.561-3.564-9.336-3.566-12.9-.006-.002.002-.004.004-.006.006z"/>
</svg>
