<?xml version="1.0" encoding="UTF-8" standalone="no"?>

<svg
   width="1024"
   height="1024"
   viewBox="0 0 271 271"
   version="1.1"
   xmlns="http://www.w3.org/2000/svg">
  <g>
    <rect
       style="fill:#8d00ff;fill-opacity:1;stroke-width:1.5875;stroke-miterlimit:100"
       width="271"
       height="271"
       x="0"
       y="0"
       ry="45" />
    <g style="fill:#ffffff;stroke-width:1.5875;stroke-miterlimit:100">
      <path
         d="m 55.583453,47.745856 q -11.368823,20.58446 -16.88098,39.877007 -5.512156,19.292547 -5.512156,38.585097 0,19.12029 5.512156,38.58509 5.512157,19.37868 16.88098,40.04927 H 35.946395 Q 22.252131,184.94688 15.620318,165.65433 8.9885048,146.27565 8.9885048,126.20796 q 0,-19.98157 6.6318132,-39.360244 6.717941,-19.464802 20.326077,-39.10186 z"
         />
      <path
         d="m 145.5005,78.923991 v 37.034799 h 37.0348 v 20.49833 h -37.0348 v 37.20706 H 125.0883 V 136.45712 H 87.881242 V 115.95879 H 125.0883 V 78.923991 Z"
         />
      <path
         d="m 215.00535,47.745856 h 19.63706 q 13.60813,19.637058 20.23995,39.10186 6.71794,19.378674 6.71794,39.360244 0,20.06769 -6.63182,39.44637 -6.63181,19.29255 -20.32607,39.18799 h -19.63706 q 11.36882,-20.67059 16.88098,-40.04927 5.51215,-19.4648 5.51215,-38.58509 0,-19.29255 -5.51215,-38.585097 -5.51216,-19.292547 -16.88098,-39.877007 z"
         />
    </g>
  </g>
</svg>
